<svg xmlns="http://www.w3.org/2000/svg" xmlns:xlink="http://www.w3.org/1999/xlink" width="85.562" height="77.979" viewBox="0 0 85.562 77.979">
  <defs>
    <clipPath id="clip-path">
      <rect id="Rectangle_425929" data-name="Rectangle 425929" width="70" height="70" transform="translate(1140 1668.886)" fill="#fff" stroke="#707070" stroke-width="1"/>
    </clipPath>
  </defs>
  <g id="Group_1211915" data-name="Group 1211915" transform="translate(-1124.438 -1660.907)">
    <g id="Rectangle_425928" data-name="Rectangle 425928" transform="translate(1124.438 1660.907)" fill="#e2dbf9" stroke="#b7a8f1" stroke-width="3">
      <rect width="70" height="70" rx="10" stroke="none"/>
      <rect x="1.5" y="1.5" width="67" height="67" rx="8.5" fill="none"/>
    </g>
    <g id="Mask_Group_1099422" data-name="Mask Group 1099422" clip-path="url(#clip-path)">
      <g id="focus_1605283" transform="translate(1140.001 1668.851)">
        <path id="Path_1283180" data-name="Path 1283180" d="M68.835,59.029,60.63,60.665l-1.637,8.206-2.692-5L48.373,49.152a7.536,7.536,0,0,0,.743-.743l14.716,7.927Zm0,0" fill="#898890"/>
        <path id="Path_1283181" data-name="Path 1283181" d="M68.475,5.838A4.643,4.643,0,1,1,63.833,1.2a4.642,4.642,0,0,1,4.643,4.643Zm0,0" fill="#898890"/>
        <path id="Path_1283182" data-name="Path 1283182" d="M63.833,10.48V56.336L49.116,48.409a19.8,19.8,0,1,0-.743.743L56.3,63.869H10.444A4.642,4.642,0,0,0,5.8,59.227V10.48a4.642,4.642,0,0,0,4.643-4.643H59.19a4.643,4.643,0,0,0,4.643,4.643Zm0,0" fill="#00d7df"/>
        <path id="Path_1283183" data-name="Path 1283183" d="M34.817,15.123a19.7,19.7,0,0,1,14.3,33.286l-1.613-.87.87,1.613A19.719,19.719,0,1,1,34.817,15.123ZM51.066,34.853A16.249,16.249,0,1,0,34.817,51.1,16.249,16.249,0,0,0,51.066,34.853Zm0,0" fill="#cca400"/>
        <path id="Path_1283184" data-name="Path 1283184" d="M51.066,34.853A16.249,16.249,0,1,1,34.817,18.6,16.249,16.249,0,0,1,51.066,34.853Zm0,0" fill="#ffda44"/>
        <path id="Path_1283185" data-name="Path 1283185" d="M10.444,5.838A4.643,4.643,0,1,1,5.8,1.2a4.642,4.642,0,0,1,4.643,4.643Zm0,0" fill="#898890"/>
        <path id="Path_1283186" data-name="Path 1283186" d="M10.444,63.869A4.643,4.643,0,1,1,5.8,59.226,4.642,4.642,0,0,1,10.444,63.869Zm0,0" fill="#898890"/>
        <path id="Path_1283187" data-name="Path 1283187" d="M34.817,26.729A3.481,3.481,0,0,1,38.3,30.211H40.62a5.813,5.813,0,0,0-4.643-5.688V22.086H33.656v2.437a5.8,5.8,0,0,0,1.161,11.491A3.482,3.482,0,1,1,31.335,39.5H29.014a5.814,5.814,0,0,0,4.643,5.687V47.62h2.321V45.183a5.8,5.8,0,0,0-1.161-11.49,3.482,3.482,0,1,1,0-6.964Zm0,0"/>
        <path id="Path_1283188" data-name="Path 1283188" d="M69.389,58.005l-4.4-2.367V11.525a5.8,5.8,0,1,0-6.848-6.848H11.489a5.8,5.8,0,1,0-6.848,6.848V58.182a5.8,5.8,0,1,0,6.848,6.848H55.6l2.367,4.4a1.162,1.162,0,0,0,1.022.61,1.237,1.237,0,0,0,.172-.012,1.16,1.16,0,0,0,.967-.92l1.489-7.448,7.449-1.49a1.161,1.161,0,0,0,.321-2.16ZM63.833,2.356a3.482,3.482,0,1,1-3.482,3.482A3.481,3.481,0,0,1,63.833,2.356ZM2.32,5.838A3.482,3.482,0,1,1,5.8,9.32,3.482,3.482,0,0,1,2.32,5.838ZM5.8,67.351a3.482,3.482,0,1,1,3.482-3.482A3.482,3.482,0,0,1,5.8,67.351Zm5.688-4.643a5.823,5.823,0,0,0-4.527-4.527V11.525A5.823,5.823,0,0,0,11.489,7H58.146a5.823,5.823,0,0,0,4.526,4.526V54.389l-11.7-6.3A20.916,20.916,0,1,0,48.049,51l6.3,11.7ZM34.817,49.941A15.088,15.088,0,1,1,49.905,34.853,15.088,15.088,0,0,1,34.817,49.941Zm12.971-3.517a17.476,17.476,0,1,0-1.4,1.4c.023.09.532,1.083.532,1.083a18.642,18.642,0,1,1,1.95-1.951s-.992-.508-1.082-.532ZM60.4,59.53a1.161,1.161,0,0,0-.91.91l-1.009,5.053L50.361,50.4l15.094,8.124Zm0,0"/>
      </g>
    </g>
  </g>
</svg>
