<svg xmlns="http://www.w3.org/2000/svg" xmlns:xlink="http://www.w3.org/1999/xlink" width="100.711" height="97.613" viewBox="0 0 100.711 97.613">
  <defs>
    <clipPath id="clip-path">
      <rect id="Rectangle_425765" data-name="Rectangle 425765" width="87.423" height="84.97" transform="translate(291.301 1719.658)" fill="#fff" stroke="#707070" stroke-width="1"/>
    </clipPath>
  </defs>
  <g id="Group_1212706" data-name="Group 1212706" transform="translate(-278.014 -1707.015)">
    <g id="Rectangle_425764" data-name="Rectangle 425764" transform="translate(278.014 1707.015)" fill="#b7a8f1" stroke="#7f74a8" stroke-width="3">
      <rect width="79.44" height="79.44" rx="10" stroke="none"/>
      <rect x="1.5" y="1.5" width="76.44" height="76.44" rx="8.5" fill="none"/>
    </g>
    <g id="Mask_Group_1099484" data-name="Mask Group 1099484" clip-path="url(#clip-path)">
      <g id="invisible_3310491" transform="translate(292.528 1719.658)">
        <g id="_x31_5_x5F_comp_x5F_17_-_Layer_36_x2C__Hidden_x2C__hide_x2C__invisible">
          <g id="Group_1212710" data-name="Group 1212710">
            <path id="Path_1285453" data-name="Path 1285453" d="M1.77,19.472V83.2H72.578V70.808H83.2V19.472Z" fill="#d8e2e5"/>
            <path id="Path_1285454" data-name="Path 1285454" d="M46.239,40.5A5.31,5.31,0,1,1,38.73,48.01Z" fill="#5c6163"/>
            <path id="Path_1285455" data-name="Path 1285455" d="M46.239,40.5,38.73,48.01A5.31,5.31,0,1,1,46.239,40.5Z" fill="#5c6163"/>
            <path id="Path_1285456" data-name="Path 1285456" d="M51.612,35.128a22.8,22.8,0,0,1,6.8,9.127c-3.181,7.406-9.124,12.391-15.932,12.391a14.839,14.839,0,0,1-9.127-3.264L38.73,48.01A5.31,5.31,0,1,0,46.239,40.5Z" fill="#bbeaf2"/>
            <path id="Path_1285457" data-name="Path 1285457" d="M51.612,35.128,46.239,40.5A5.31,5.31,0,1,0,38.73,48.01l-5.373,5.373a22.8,22.8,0,0,1-6.8-9.127c3.181-7.406,9.124-12.391,15.932-12.391a14.839,14.839,0,0,1,9.127,3.264Z" fill="#bbeaf2"/>
            <path id="Path_1285458" data-name="Path 1285458" d="M83.2,70.808,72.578,83.2V70.808Z" fill="#afc4c9"/>
            <path id="Path_1285459" data-name="Path 1285459" d="M67.268,54.876h7.081v7.081H67.268Z" fill="#ffaa24"/>
            <path id="Path_1285460" data-name="Path 1285460" d="M67.268,40.715h7.081V47.8H67.268Z" fill="#ffaa24"/>
            <path id="Path_1285461" data-name="Path 1285461" d="M67.268,26.553h7.081v7.081H67.268Z" fill="#ffaa24"/>
            <g id="Group_1212709" data-name="Group 1212709">
              <path id="Path_1285462" data-name="Path 1285462" d="M53.106,69.038h7.081v7.081H53.106Z" fill="#828688"/>
              <path id="Path_1285463" data-name="Path 1285463" d="M38.944,69.038h7.081v7.081H38.944Z" fill="#828688"/>
              <path id="Path_1285464" data-name="Path 1285464" d="M24.783,69.038h7.081v7.081H24.783Z" fill="#828688"/>
              <path id="Path_1285465" data-name="Path 1285465" d="M10.621,69.038H17.7v7.081H10.621Z" fill="#828688"/>
              <path id="Path_1285466" data-name="Path 1285466" d="M10.621,54.876H17.7v7.081H10.621Z" fill="#828688"/>
              <path id="Path_1285467" data-name="Path 1285467" d="M10.621,40.715H17.7V47.8H10.621Z" fill="#828688"/>
              <path id="Path_1285468" data-name="Path 1285468" d="M10.621,26.553H17.7v7.081H10.621Z" fill="#828688"/>
            </g>
            <path id="Path_1285469" data-name="Path 1285469" d="M24.783,8.851H83.2V19.472H1.77V8.851H24.783Z" fill="#4e8dc2"/>
            <path id="Path_1285470" data-name="Path 1285470" d="M72.578,84.97H1.77A1.77,1.77,0,0,1,0,83.2V19.472A1.77,1.77,0,0,1,1.77,17.7H83.2a1.77,1.77,0,0,1,1.77,1.77V70.808a1.771,1.771,0,0,1-.426,1.152L73.922,84.352a1.77,1.77,0,0,1-1.344.618ZM3.54,81.429H71.764l9.665-11.276V21.242H3.54Z"/>
            <path id="Path_1285471" data-name="Path 1285471" d="M14.162,15.932a1.77,1.77,0,0,1-1.77-1.77V1.77a1.77,1.77,0,0,1,3.54,0V14.162A1.77,1.77,0,0,1,14.162,15.932Z"/>
            <path id="Path_1285472" data-name="Path 1285472" d="M83.2,21.242a1.77,1.77,0,0,1-1.77-1.77V10.621H3.54v8.851a1.77,1.77,0,1,1-3.54,0V8.851a1.77,1.77,0,0,1,1.77-1.77H83.2a1.77,1.77,0,0,1,1.77,1.77V19.472A1.77,1.77,0,0,1,83.2,21.242Z"/>
            <path id="Path_1285473" data-name="Path 1285473" d="M15.932,15.932h-3.54a1.77,1.77,0,1,1,0-3.54h3.54a1.77,1.77,0,1,1,0,3.54Z"/>
            <path id="Path_1285474" data-name="Path 1285474" d="M70.808,15.932a1.77,1.77,0,0,1-1.77-1.77V1.77a1.77,1.77,0,1,1,3.54,0V14.162A1.77,1.77,0,0,1,70.808,15.932Z"/>
            <path id="Path_1285475" data-name="Path 1285475" d="M72.578,15.932h-3.54a1.77,1.77,0,1,1,0-3.54h3.54a1.77,1.77,0,1,1,0,3.54Z"/>
            <path id="Path_1285476" data-name="Path 1285476" d="M60.187,15.932a1.77,1.77,0,0,1-1.77-1.77V1.77a1.77,1.77,0,0,1,3.54,0V14.162A1.77,1.77,0,0,1,60.187,15.932Z"/>
            <path id="Path_1285477" data-name="Path 1285477" d="M61.957,15.932h-3.54a1.77,1.77,0,0,1,0-3.54h3.54a1.77,1.77,0,0,1,0,3.54Z"/>
            <path id="Path_1285478" data-name="Path 1285478" d="M24.783,15.932a1.77,1.77,0,0,1-1.77-1.77V1.77a1.77,1.77,0,1,1,3.54,0V14.162A1.77,1.77,0,0,1,24.783,15.932Z"/>
            <path id="Path_1285479" data-name="Path 1285479" d="M26.553,15.932h-3.54a1.77,1.77,0,0,1,0-3.54h3.54a1.77,1.77,0,0,1,0,3.54Z"/>
            <path id="Path_1285480" data-name="Path 1285480" d="M72.578,84.97a1.77,1.77,0,0,1-1.77-1.77V70.808a1.77,1.77,0,0,1,1.77-1.77H83.2a1.77,1.77,0,1,1,0,3.54H74.348V83.2A1.77,1.77,0,0,1,72.578,84.97Z"/>
            <path id="Path_1285481" data-name="Path 1285481" d="M17.7,77.889H10.621a1.77,1.77,0,0,1-1.77-1.77V69.038a1.77,1.77,0,0,1,1.77-1.77H17.7a1.77,1.77,0,0,1,1.77,1.77v7.081A1.77,1.77,0,0,1,17.7,77.889Zm-5.311-3.541h3.54v-3.54h-3.54Z"/>
            <path id="Path_1285482" data-name="Path 1285482" d="M17.7,63.727H10.621a1.77,1.77,0,0,1-1.77-1.77V54.876a1.77,1.77,0,0,1,1.77-1.77H17.7a1.77,1.77,0,0,1,1.77,1.77v7.081A1.77,1.77,0,0,1,17.7,63.727Zm-5.311-3.541h3.54v-3.54h-3.54Z"/>
            <path id="Path_1285483" data-name="Path 1285483" d="M17.7,49.566H10.621a1.77,1.77,0,0,1-1.77-1.77V40.715a1.77,1.77,0,0,1,1.77-1.77H17.7a1.77,1.77,0,0,1,1.77,1.77V47.8A1.77,1.77,0,0,1,17.7,49.566Zm-5.311-3.54h3.54v-3.54h-3.54Z"/>
            <path id="Path_1285484" data-name="Path 1285484" d="M17.7,35.4H10.621a1.77,1.77,0,0,1-1.77-1.77V26.553a1.77,1.77,0,0,1,1.77-1.77H17.7a1.77,1.77,0,0,1,1.77,1.77v7.081A1.77,1.77,0,0,1,17.7,35.4Zm-5.311-3.54h3.54v-3.54h-3.54Z"/>
            <path id="Path_1285485" data-name="Path 1285485" d="M74.348,63.727H67.268a1.77,1.77,0,0,1-1.77-1.77V54.876a1.77,1.77,0,0,1,1.77-1.77h7.081a1.77,1.77,0,0,1,1.77,1.77v7.081A1.77,1.77,0,0,1,74.348,63.727Zm-5.311-3.541h3.54v-3.54h-3.54Z"/>
            <path id="Path_1285486" data-name="Path 1285486" d="M74.348,49.566H67.268A1.77,1.77,0,0,1,65.5,47.8V40.715a1.77,1.77,0,0,1,1.77-1.77h7.081a1.77,1.77,0,0,1,1.77,1.77V47.8A1.77,1.77,0,0,1,74.348,49.566Zm-5.311-3.54h3.54v-3.54h-3.54Z"/>
            <path id="Path_1285487" data-name="Path 1285487" d="M74.348,35.4H67.268a1.77,1.77,0,0,1-1.77-1.77V26.553a1.77,1.77,0,0,1,1.77-1.77h7.081a1.77,1.77,0,0,1,1.77,1.77v7.081A1.77,1.77,0,0,1,74.348,35.4Zm-5.311-3.54h3.54v-3.54h-3.54Z"/>
            <path id="Path_1285488" data-name="Path 1285488" d="M31.864,77.889H24.783a1.77,1.77,0,0,1-1.77-1.77V69.038a1.77,1.77,0,0,1,1.77-1.77h7.081a1.77,1.77,0,0,1,1.77,1.77v7.081A1.77,1.77,0,0,1,31.864,77.889Zm-5.311-3.541h3.54v-3.54h-3.54Z"/>
            <path id="Path_1285489" data-name="Path 1285489" d="M46.025,77.889H38.944a1.77,1.77,0,0,1-1.77-1.77V69.038a1.77,1.77,0,0,1,1.77-1.77h7.081a1.77,1.77,0,0,1,1.77,1.77v7.081A1.77,1.77,0,0,1,46.025,77.889Zm-5.311-3.541h3.54v-3.54h-3.54Z"/>
            <path id="Path_1285490" data-name="Path 1285490" d="M60.187,77.889H53.106a1.77,1.77,0,0,1-1.77-1.77V69.038a1.77,1.77,0,0,1,1.77-1.77h7.081a1.77,1.77,0,0,1,1.77,1.77v7.081A1.77,1.77,0,0,1,60.187,77.889Zm-5.311-3.541h3.54v-3.54h-3.54Z"/>
            <path id="Path_1285491" data-name="Path 1285491" d="M42.485,58.417a16.647,16.647,0,0,1-10.21-3.634,24.561,24.561,0,0,1-7.349-9.829,1.771,1.771,0,0,1,0-1.4c3.567-8.3,10.295-13.463,17.558-13.463a16.647,16.647,0,0,1,10.21,3.634,24.561,24.561,0,0,1,7.349,9.829,1.771,1.771,0,0,1,0,1.4C56.477,53.258,49.749,58.417,42.485,58.417ZM28.492,44.255a20.7,20.7,0,0,0,5.947,7.725h0a13.141,13.141,0,0,0,8.045,2.895c5.628,0,10.936-4.049,13.993-10.621a20.693,20.693,0,0,0-5.947-7.725,13.143,13.143,0,0,0-8.046-2.9c-5.628,0-10.936,4.049-13.993,10.621Z"/>
            <path id="Path_1285492" data-name="Path 1285492" d="M42.485,51.336a7.08,7.08,0,1,1,7.081-7.081A7.034,7.034,0,0,1,42.485,51.336Zm0-10.621a3.542,3.542,0,1,0,2.5,1.038,3.544,3.544,0,0,0-2.5-1.038Z"/>
            <path id="Path_1285493" data-name="Path 1285493" d="M26.553,61.957A1.77,1.77,0,0,1,25.3,58.935L57.165,27.071a1.77,1.77,0,0,1,2.5,2.5L27.805,61.439a1.766,1.766,0,0,1-1.252.519Z"/>
          </g>
        </g>
      </g>
    </g>
  </g>
</svg>
