<svg xmlns="http://www.w3.org/2000/svg" xmlns:xlink="http://www.w3.org/1999/xlink" width="85.562" height="77.979" viewBox="0 0 85.562 77.979">
  <defs>
    <clipPath id="clip-path">
      <rect id="Rectangle_425939" data-name="Rectangle 425939" width="70" height="70" transform="translate(5864.525 -9992.051)" fill="#fff" stroke="#707070" stroke-width="1"/>
    </clipPath>
  </defs>
  <g id="Group_1211935" data-name="Group 1211935" transform="translate(-5848.964 10000.029)">
    <g id="Rectangle_425938" data-name="Rectangle 425938" transform="translate(5848.964 -10000.029)" fill="#e2dbf9" stroke="#b7a8f1" stroke-width="3">
      <rect width="70" height="70" rx="10" stroke="none"/>
      <rect x="1.5" y="1.5" width="67" height="67" rx="8.5" fill="none"/>
    </g>
    <g id="Mask_Group_1099428" data-name="Mask Group 1099428" clip-path="url(#clip-path)">
      <g id="value-proposal_10484579" transform="translate(5863.828 -9992.748)">
        <circle id="Ellipse_12702" data-name="Ellipse 12702" cx="11.576" cy="11.576" r="11.576" transform="translate(36.003 31.012) rotate(-8.973)" fill="#f9ac00"/>
        <path id="Path_1283272" data-name="Path 1283272" d="M48.862,52.212a11.573,11.573,0,0,1,0-23.135,11.573,11.573,0,0,1,0,23.135Z" fill="#fcdb35" fill-rule="evenodd"/>
        <circle id="Ellipse_12703" data-name="Ellipse 12703" cx="9.233" cy="9.233" r="9.233" transform="translate(36.157 40.646) rotate(-45)" fill="#f19a00"/>
        <g id="Group_1211933" data-name="Group 1211933">
          <path id="Path_1283273" data-name="Path 1283273" d="M49.817,31.43a9.234,9.234,0,0,1,0,18.429,9.234,9.234,0,0,1,0-18.429Z" fill="#f9ac00" fill-rule="evenodd"/>
          <path id="Path_1283274" data-name="Path 1283274" d="M46.843,60.33A3.056,3.056,0,0,0,44.1,55.721c-3.81,0-4.806.2-8.335-1.906l-3.84-2.288A11.164,11.164,0,0,0,24.714,49.8l-10.572.978V66.4c10.181,0,21.323,5.138,32.112,2.9,3.791-.785,16.128-7.843,18.421-10.858,2.073-2.725-.6-5.292-3.765-3.466-4.258,2.458-13.7,6.735-17.66,7.124,1.655-.2,2.984-.745,3.594-1.771Z" fill="#fdb0a0" fill-rule="evenodd"/>
          <path id="Path_1283275" data-name="Path 1283275" d="M46.843,60.33A3.056,3.056,0,0,0,44.1,55.721c-3.81,0-4.806.2-8.335-1.906l-3.84-2.288A11.164,11.164,0,0,0,24.714,49.8l-10.572.978V63.748c10.09.12,21.452,5.108,32.112,2.9,3.791-.785,16.128-7.843,18.421-10.858a4.258,4.258,0,0,0,.331-.5c-.722-.979-2.334-1.327-4.1-.31-4.258,2.458-13.7,6.735-17.66,7.124,1.655-.2,2.984-.745,3.594-1.771Z" fill="#ffcec0" fill-rule="evenodd"/>
          <path id="Path_1283276" data-name="Path 1283276" d="M31.142,57.574a22.156,22.156,0,0,0,7.693,2.115,15.665,15.665,0,0,0,4.232-.029c3.957-.722,3.772-2.446,2.658-3.546a3.061,3.061,0,0,1,1.117,4.217A4.008,4.008,0,0,1,44.1,61.96c-.255.048-.536.095-.848.142a18.405,18.405,0,0,1-4.667.057,24.866,24.866,0,0,1-8.7-2.445A1.257,1.257,0,1,1,31.142,57.574Z" fill="#fdb0a0" fill-rule="evenodd"/>
          <path id="Path_1283277" data-name="Path 1283277" d="M6,48.174h6.42a2.3,2.3,0,0,1,2.291,2.291V66.71A2.3,2.3,0,0,1,12.424,69H6Z" fill="#2a93fc" fill-rule="evenodd"/>
          <path id="Path_1283278" data-name="Path 1283278" d="M6,48.174h6.42a2.273,2.273,0,0,1,.359,1.228V65.424A1.781,1.781,0,0,1,11.005,67.2H6Z" fill="#4eb1fc" fill-rule="evenodd"/>
        </g>
        <circle id="Ellipse_12704" data-name="Ellipse 12704" cx="1.715" cy="1.715" r="1.715" transform="translate(7.926 64.426) rotate(-45)" fill="#0062d9"/>
        <g id="Group_1211934" data-name="Group 1211934">
          <path id="Path_1283279" data-name="Path 1283279" d="M20.44,13.356,32.571,29.5,44.7,13.356l-4.044-7H24.483Z" fill="#43f043" fill-rule="evenodd"/>
          <path id="Path_1283280" data-name="Path 1283280" d="M36.615,13.356l4.044-7,4.044,7Z" fill="#43f043" fill-rule="evenodd"/>
          <path id="Path_1283281" data-name="Path 1283281" d="M39.527,8.311l1.131-1.96,4.044,7H42.44Z" fill="#2dd62d" fill-rule="evenodd"/>
          <path id="Path_1283282" data-name="Path 1283282" d="M20.44,13.356l4.044-7,4.044,7Z" fill="#43f043" fill-rule="evenodd"/>
          <path id="Path_1283283" data-name="Path 1283283" d="M24.483,6.352l4.044,7,4.044-7Z" fill="#96ff96" fill-rule="evenodd"/>
          <path id="Path_1283284" data-name="Path 1283284" d="M24.483,6.352l1.131,1.96H31.44l1.131-1.96Z" fill="#43f043" fill-rule="evenodd"/>
          <path id="Path_1283285" data-name="Path 1283285" d="M28.527,13.356l4.044-7,4.044,7Z" fill="#2dd62d" fill-rule="evenodd"/>
          <path id="Path_1283286" data-name="Path 1283286" d="M32.571,6.352l4.044,7,4.044-7Z" fill="#96ff96" fill-rule="evenodd"/>
          <path id="Path_1283287" data-name="Path 1283287" d="M32.571,6.352,33.7,8.311h5.825l1.131-1.96Z" fill="#43f043" fill-rule="evenodd"/>
          <path id="Path_1283288" data-name="Path 1283288" d="M36.615,13.356H44.7L32.571,29.5Z" fill="#96ff96" fill-rule="evenodd"/>
          <path id="Path_1283289" data-name="Path 1283289" d="M28.527,13.356H20.44L32.571,29.5Z" fill="#96ff96" fill-rule="evenodd"/>
          <path id="Path_1283290" data-name="Path 1283290" d="M28.527,13.356h8.088L32.571,29.5Z" fill="#43f043" fill-rule="evenodd"/>
          <path id="Path_1283291" data-name="Path 1283291" d="M32.571,29.5l9.869-16.14H44.7Z" fill="#43f043" fill-rule="evenodd"/>
          <path id="Path_1283292" data-name="Path 1283292" d="M25.615,8.311l-1.131-1.96-4.044,7H22.7Z" fill="#2dd62d" fill-rule="evenodd"/>
          <path id="Path_1283293" data-name="Path 1283293" d="M32.571,29.5,22.7,13.356H20.44Z" fill="#43f043" fill-rule="evenodd"/>
          <path id="Path_1283294" data-name="Path 1283294" d="M51.716,42.807a.908.908,0,0,1,.043.75c-.134.46-.828.824-1.707.945V41.787A2.872,2.872,0,0,1,51.716,42.807ZM47.3,39.134a1.237,1.237,0,0,1-.531-.865,1.11,1.11,0,0,1,.34-.838,2.43,2.43,0,0,1,1.273-.6v2.793a3.407,3.407,0,0,1-1.082-.491Zm1.082-4.883v.887A4.207,4.207,0,0,0,45.9,36.273a2.757,2.757,0,0,0-.8,2.12,2.9,2.9,0,0,0,1.174,2.063,5.806,5.806,0,0,0,2.109.9v3.073a2.149,2.149,0,0,1-1.787-1.368.836.836,0,0,0-1.629.379A3.851,3.851,0,0,0,48.38,46.14v.906a.837.837,0,1,0,1.673,0v-.857c1.478-.152,2.924-.828,3.313-2.161A2.61,2.61,0,0,0,53.182,42a4.49,4.49,0,0,0-2.871-1.88c-.085-.024-.171-.046-.258-.068V36.825c.113.021.226.045.336.075.375.1,1.265.425,1.431,1.152a.837.837,0,1,0,1.631-.371,3.405,3.405,0,0,0-2.615-2.393,5.613,5.613,0,0,0-.784-.155v-.883a.837.837,0,1,0-1.673,0Zm9.252,6.4a8.416,8.416,0,1,0-8.415,8.415A8.425,8.425,0,0,0,57.631,40.649Zm-18.5,0A10.089,10.089,0,1,0,49.216,30.56,10.1,10.1,0,0,0,39.126,40.649Zm20.849,0a10.76,10.76,0,1,0-10.76,10.759A10.773,10.773,0,0,0,59.976,40.649Zm-23.194,0A12.433,12.433,0,1,0,49.216,28.215,12.448,12.448,0,0,0,36.782,40.649ZM6.263,39.211a.835.835,0,0,0,1.183,0l13.631-13.63L31.971,36.475a.837.837,0,0,0,1.184,0L49.311,20.319l-.1.664a.836.836,0,0,0,.706.948.752.752,0,0,0,.123.01.837.837,0,0,0,.826-.717l.463-3.161a.835.835,0,0,0-.949-.948l-3.161.463a.836.836,0,1,0,.243,1.655l.664-.1L32.562,34.7l-10.895-10.9a.838.838,0,0,0-1.184,0L6.263,38.027a.838.838,0,0,0,0,1.184ZM26.007,2.768a.837.837,0,1,1,1.49-.763l.944,1.842a.837.837,0,0,1-1.491.763l-.943-1.842Zm5.719.835V1.534a.837.837,0,0,1,1.674,0V3.6a.837.837,0,0,1-1.674,0Zm4.96.244.944-1.842a.836.836,0,1,1,1.489.763L38.176,4.61a.837.837,0,0,1-1.49-.763ZM10.37,65.309a.878.878,0,1,1,.879-.877A.879.879,0,0,1,10.37,65.309Zm0-3.429a2.551,2.551,0,1,0,2.552,2.552A2.555,2.555,0,0,0,10.37,61.88Zm53.61-3.939c-2.184,2.871-14.4,9.811-17.911,10.538-6.262,1.3-12.762.021-19.046-1.213a78.169,78.169,0,0,0-11.464-1.673V51.5l9.233-.855a10.388,10.388,0,0,1,6.7,1.613l3.837,2.287c3.434,2.044,4.731,2.04,7.867,2.025.28,0,.576,0,.891,0h.031a2.218,2.218,0,0,1,1.987,3.342,3.107,3.107,0,0,1-2.065,1.208c-3.719.874-10.414-.679-12.646-2.118A.836.836,0,1,0,30.49,60.4c2.006,1.293,7,2.63,11.056,2.63a14.962,14.962,0,0,0,1.769-.1v0C47.642,62.51,57.325,58,61.3,55.708c1.346-.777,2.444-.56,2.937,0,.476.542.378,1.4-.258,2.234ZM13.885,66.708V50.475a1.454,1.454,0,0,0-1.453-1.453H6.855V68.161h5.578a1.454,1.454,0,0,0,1.453-1.453ZM65.493,54.6a3.351,3.351,0,0,1-.181,4.353c-2.436,3.2-14.969,10.348-18.9,11.162a29.345,29.345,0,0,1-5.972.58A71.808,71.808,0,0,1,26.7,68.907a75.947,75.947,0,0,0-11.192-1.643,3.131,3.131,0,0,1-3.076,2.57H6.019A.836.836,0,0,1,5.182,69V48.186a.835.835,0,0,1,.837-.837h6.414a3.131,3.131,0,0,1,3.058,2.472l9.147-.845a11.941,11.941,0,0,1,7.714,1.84L36.19,53.1c3.033,1.807,3.952,1.8,7,1.789l.884,0A3.9,3.9,0,0,1,47.9,60,88.286,88.286,0,0,0,60.465,54.26c2.166-1.251,4.086-.729,5.029.342ZM43.245,12.523H38.057l2.6-4.494ZM27.866,14.2l2.879,11.493L22.107,14.2Zm-.8-1.673H21.881l2.594-4.494Zm1.449-.837,2.6-4.494H25.925Zm5.494-4.494,2.594,4.494,2.6-4.494Zm3.248,7H43.02L34.381,25.689Zm-7.292-1.673,2.594-4.494,2.6,4.494ZM35.536,14.2,32.562,26.058,29.591,14.2ZM31.894,30,19.763,13.862a.835.835,0,0,1-.055-.92l4.044-7a.834.834,0,0,1,.724-.418H40.65a.835.835,0,0,1,.725.418l4.044,7a.835.835,0,0,1-.056.92L33.232,30a.835.835,0,0,1-1.337,0Z" fill="#021047" fill-rule="evenodd"/>
        </g>
      </g>
    </g>
  </g>
</svg>
